<svg xmlns="http://www.w3.org/2000/svg" xmlns:xlink="http://www.w3.org/1999/xlink" fill="none" version="1.1" width="128.39990234375" height="88.19999694824219" viewBox="0 0 128.39990234375 88.19999694824219"><defs><linearGradient x1="1.0002052783966064" y1="0.4998174011707306" x2="0.0003603524237405509" y2="0.4998174011707306" id="master_svg0_227_7650"><stop offset="0%" stop-color="#02B9EF" stop-opacity="1"/><stop offset="53.17000150680542%" stop-color="#3987FF" stop-opacity="1"/><stop offset="100%" stop-color="#597AE3" stop-opacity="1"/></linearGradient><linearGradient x1="0.0019398495787754655" y1="0.5003229975700378" x2="1.0010112524032593" y2="0.5003229975700378" id="master_svg1_227_7651"><stop offset="0%" stop-color="#7ECEF5" stop-opacity="1"/><stop offset="100%" stop-color="#0BEBCE" stop-opacity="1"/></linearGradient><linearGradient x1="0.9999439120292664" y1="0.495523065328598" x2="-0.0007788161747157574" y2="0.495523065328598" id="master_svg2_227_7653"><stop offset="0%" stop-color="#02B9EF" stop-opacity="1"/><stop offset="53.17000150680542%" stop-color="#3987FF" stop-opacity="1"/><stop offset="100%" stop-color="#597AE3" stop-opacity="1"/></linearGradient></defs><g><g></g><g></g><g><path d="M35.39999408721924,25.7C36.29999408721924,23.2,39.79999408721924,23.2,40.79999408721924,25.7L58.19999408721924,71.6C59.79999408721924,71.6,61.499994087219235,71.5,63.09999408721924,71.5C67.49999408721924,71.5,71.79999408721923,71.7,76.09999408721924,72L61.499994087219235,34.1C61.09999408721924,33,62.09999408721924,32,63.19999408721924,32.3L82.29999408721923,38L74.49999408721924,39.6L87.39999408721924,73C98.79999408721923,74.5,109.69999408721924,77,119.69999408721924,80.4L90.19999408721924,15.9C89.59999408721924,14.7,88.49999408721924,13.8,86.69999408721924,13.3L44.29999408721924,0.6C44.19999408721924,0.6,44.19999408721924,0.5,44.09999408721924,0.5C43.29999408721924,0.2,42.39999408721924,0,41.39999408721924,0C39.09999408721924,0,37.09999408721924,1.1,35.89999408721924,2.8C35.69999408721924,3.1,35.499994087219235,3.4,35.39999408721924,3.7L34.89999408721924,5.1L6.199994087219238,80.5C9.299994087219238,79.5,12.399994087219238,78.5,15.599994087219239,77.6L35.39999408721924,25.7Z" fill="url(#master_svg0_227_7650)" fill-opacity="1"/></g><g><path d="M42.199990844726564,29.500000381469725L40.699990844726564,25.600000381469727C39.799990844726565,23.100000381469727,36.299990844726565,23.100000381469727,35.299990844726565,25.600000381469727L15.599990844726562,77.60000038146973C18.599990844726562,76.80000038146973,21.599990844726562,76.10000038146973,24.699990844726564,75.40000038146972L42.199990844726564,29.500000381469725Z" fill="url(#master_svg1_227_7651)" fill-opacity="1"/></g><g><path d="M42.199990844726564,40.5L35.59999084472656,62.9L44.699990844726564,62.9C44.89999084472656,62.9,44.99999084472656,63,45.09999084472656,63.2C45.09999084472656,63.4,45.09999084472656,63.5,44.89999084472656,63.6C44.199990844726564,64,43.699990844726564,64.7,43.699990844726564,65.6C43.699990844726564,66.4,44.09999084472656,67.2,44.89999084472656,67.6C45.09999084472656,67.7,45.09999084472656,67.9,45.09999084472656,68C45.09999084472656,68.2,44.89999084472656,68.3,44.699990844726564,68.3L33.99999284472656,68.3L33.59999084472656,69.8L42.49999084472656,69.8C43.99999084472656,69.8,45.09999084472656,71,45.199990844726564,72.4C47.299990844726565,72.2,49.49999084472656,72,51.59999084472656,71.9L42.199990844726564,40.5Z" fill="#3987FF" fill-opacity="1"/></g><g><path d="M128.4,88.19999694824219C110.2,79.99999694824218,88,75.19999694824219,64.2,75.19999694824219C40.3,75.19999694824219,18.2,79.99999694824218,0,88.19999694824219C19.5,83.69999694824219,41.3,81.19999694824219,64.2,81.19999694824219C87.1,81.19999694824219,108.9,83.69999694824219,128.4,88.19999694824219Z" fill="url(#master_svg2_227_7653)" fill-opacity="1"/></g></g></svg>